<svg xmlns="http://www.w3.org/2000/svg" viewBox="0 0 720 800" fill="none" aria-hidden="true">
  <defs>
    <radialGradient id="bgGlow" cx="50%" cy="42%" r="65%">
      <stop offset="0%" stop-color="#faf8f4"/>
      <stop offset="55%" stop-color="#ebe6dc"/>
      <stop offset="100%" stop-color="#dfd8cc"/>
    </radialGradient>
    <linearGradient id="pouchBody" x1="0%" y1="0%" x2="100%" y2="100%">
      <stop offset="0%" stop-color="#3d3d3d"/>
      <stop offset="45%" stop-color="#2a2a2a"/>
      <stop offset="100%" stop-color="#1c1c1c"/>
    </linearGradient>
    <linearGradient id="pouchSheen" x1="0%" y1="0%" x2="85%" y2="0%">
      <stop offset="0%" stop-color="#fff" stop-opacity="0.14"/>
      <stop offset="35%" stop-color="#fff" stop-opacity="0.03"/>
      <stop offset="100%" stop-color="#fff" stop-opacity="0"/>
    </linearGradient>
    <linearGradient id="sealStrip" x1="0%" y1="0%" x2="0%" y2="100%">
      <stop offset="0%" stop-color="#e8e017"/>
      <stop offset="100%" stop-color="#c9bc14"/>
    </linearGradient>
    <filter id="softShadow" x="-20%" y="-20%" width="140%" height="140%">
      <feDropShadow dx="0" dy="24" stdDeviation="28" flood-color="#141414" flood-opacity="0.12"/>
    </filter>
  </defs>
  <rect width="720" height="800" fill="url(#bgGlow)"/>
  <ellipse cx="360" cy="698" rx="200" ry="18" fill="#141414" opacity="0.06"/>
  <g filter="url(#softShadow)">
    <path fill="url(#pouchBody)" d="M228 118c0-8 6-14 14-14h236c8 0 14 6 14 14v24c0 3-2 6-5 7l-8 3c-3 1-5 4-5 7v480c0 28-22 50-50 50H296c-28 0-50-22-50-50V169c0-3-2-6-5-7l-8-3c-3-1-5-4-5-7v-24z"/>
    <path fill="url(#pouchSheen)" d="M228 118c0-8 6-14 14-14h236c8 0 14 6 14 14v24c0 3-2 6-5 7l-8 3c-3 1-5 4-5 7v480c0 28-22 50-50 50H296c-28 0-50-22-50-50V169c0-3-2-6-5-7l-8-3c-3-1-5-4-5-7v-24z"/>
    <rect x="242" y="104" width="236" height="22" rx="4" fill="url(#sealStrip)"/>
    <line x1="252" y1="115" x2="468" y2="115" stroke="#141414" stroke-opacity="0.15" stroke-width="1"/>
  </g>
  <rect x="288" y="268" width="144" height="3" rx="1" fill="#4a6741"/>
  <text x="360" y="318" text-anchor="middle" fill="#f5f0e8" font-family="system-ui, -apple-system, BlinkMacSystemFont, 'Segoe UI', sans-serif" font-size="26" font-weight="800" letter-spacing="0.35em">DAD GAINS</text>
  <text x="360" y="352" text-anchor="middle" fill="#a8a29e" font-family="system-ui, -apple-system, sans-serif" font-size="11" font-weight="600" letter-spacing="0.28em">CLEAR WHEY ISOLATE</text>
  <rect x="272" y="388" width="176" height="36" rx="18" fill="#4a6741"/>
  <text x="360" y="412" text-anchor="middle" fill="#f5f0e8" font-family="system-ui, sans-serif" font-size="13" font-weight="700" letter-spacing="0.12em">LEMONADE &#183; V1</text>
  <g transform="translate(520 420)">
    <circle r="36" fill="#e8e017" opacity="0.95"/>
    <circle r="28" fill="#f5f04a" opacity="0.5"/>
    <path d="M0-28v56M-24-14L24 14M24-14L-24 14" stroke="#c9bc14" stroke-width="2" stroke-linecap="round" opacity="0.7"/>
  </g>
  <text x="360" y="498" text-anchor="middle" fill="#6b6560" font-family="system-ui, sans-serif" font-size="12" font-weight="600" letter-spacing="0.06em">20G PROTEIN &#183; 80 CAL &#183; 5 INGREDIENTS</text>
</svg>
