<svg xmlns="http://www.w3.org/2000/svg" viewBox="0 0 720 800" fill="none" aria-hidden="true">
  <defs>
    <radialGradient id="bgGlow" cx="50%" cy="40%" r="70%">
      <stop offset="0%" stop-color="#ffffff"/>
      <stop offset="45%" stop-color="#f4f2ed"/>
      <stop offset="100%" stop-color="#ebe8e2"/>
    </radialGradient>
    <linearGradient id="pouchBody" x1="0%" y1="0%" x2="100%" y2="100%">
      <stop offset="0%" stop-color="#fefefe"/>
      <stop offset="40%" stop-color="#f7f5f0"/>
      <stop offset="100%" stop-color="#ebe6de"/>
    </linearGradient>
    <linearGradient id="pouchSheen" x1="0%" y1="0%" x2="85%" y2="0%">
      <stop offset="0%" stop-color="#fff" stop-opacity="0.55"/>
      <stop offset="40%" stop-color="#fff" stop-opacity="0.12"/>
      <stop offset="100%" stop-color="#fff" stop-opacity="0"/>
    </linearGradient>
    <linearGradient id="sealStrip" x1="0%" y1="0%" x2="0%" y2="100%">
      <stop offset="0%" stop-color="#f0e85c"/>
      <stop offset="100%" stop-color="#e8e017"/>
    </linearGradient>
    <filter id="softShadow" x="-20%" y="-20%" width="140%" height="140%">
      <feDropShadow dx="0" dy="18" stdDeviation="22" flood-color="#2a2a2a" flood-opacity="0.08"/>
    </filter>
  </defs>
  <rect width="720" height="800" fill="url(#bgGlow)"/>
  <ellipse cx="360" cy="702" rx="188" ry="14" fill="#2a2a2a" opacity="0.05"/>
  <g filter="url(#softShadow)">
    <path fill="url(#pouchBody)" stroke="#d8d3ca" stroke-width="1.25" d="M228 118c0-8 6-14 14-14h236c8 0 14 6 14 14v24c0 3-2 6-5 7l-8 3c-3 1-5 4-5 7v480c0 28-22 50-50 50H296c-28 0-50-22-50-50V169c0-3-2-6-5-7l-8-3c-3-1-5-4-5-7v-24z"/>
    <path fill="url(#pouchSheen)" d="M228 118c0-8 6-14 14-14h236c8 0 14 6 14 14v24c0 3-2 6-5 7l-8 3c-3 1-5 4-5 7v480c0 28-22 50-50 50H296c-28 0-50-22-50-50V169c0-3-2-6-5-7l-8-3c-3-1-5-4-5-7v-24z"/>
    <rect x="242" y="104" width="236" height="22" rx="4" fill="url(#sealStrip)"/>
    <line x1="252" y1="115" x2="468" y2="115" stroke="#b8a800" stroke-opacity="0.35" stroke-width="1"/>
  </g>
  <rect x="288" y="268" width="144" height="3" rx="1" fill="#4a6741"/>
  <text x="360" y="318" text-anchor="middle" fill="#2c2c2c" font-family="system-ui, -apple-system, BlinkMacSystemFont, 'Segoe UI', sans-serif" font-size="26" font-weight="800" letter-spacing="0.35em">DAD GAINS</text>
  <text x="360" y="352" text-anchor="middle" fill="#6b6560" font-family="system-ui, -apple-system, sans-serif" font-size="11" font-weight="600" letter-spacing="0.28em">CLEAR WHEY ISOLATE</text>
  <rect x="272" y="388" width="176" height="36" rx="18" fill="#4a6741"/>
  <text x="360" y="412" text-anchor="middle" fill="#faf9f6" font-family="system-ui, sans-serif" font-size="13" font-weight="700" letter-spacing="0.12em">LEMONADE &#183; V1</text>
  <g transform="translate(518 424)">
    <circle r="34" fill="#fff" stroke="#e8e4dc" stroke-width="1.5"/>
    <circle r="26" fill="#fff7d6" opacity="0.9"/>
    <path d="M-8-6c8-10 20-10 28 0 6 14-6 28-14 28s-20-14-14-28z" fill="#f5e6a8" opacity="0.85"/>
    <path d="M-6 8c6 4 12 4 18 0" stroke="#e8c84a" stroke-width="2" fill="none" stroke-linecap="round" opacity="0.7"/>
  </g>
  <text x="360" y="498" text-anchor="middle" fill="#8a8580" font-family="system-ui, sans-serif" font-size="12" font-weight="600" letter-spacing="0.06em">20G PROTEIN &#183; 80 CAL &#183; 5 INGREDIENTS</text>
</svg>
